<svg xmlns="http://www.w3.org/2000/svg" xmlns:xlink="http://www.w3.org/1999/xlink" viewBox="0 0 229.86 147.38"><defs><style>.cls-1,.cls-7{fill:none;}.cls-2{isolation:isolate;}.cls-3{clip-path:url(#clip-path);}.Light-35,.cls-11,.cls-4{fill:#ededed;}.cls-5,.cls-6{fill:#f2cab6;}.cls-6{opacity:0.5;}.Light-35{mix-blend-mode:soft-light;}.cls-7{stroke:#d99877;stroke-linecap:round;stroke-linejoin:round;stroke-width:0.64px;}.cls-10,.cls-8,.cls-9{fill:#d99877;}.cls-9{opacity:0.75;}.cls-10{font-size:16.26px;}.cls-10,.cls-11{font-family:FiraSans-ExtraBold, Fira Sans ExtraBold;font-weight:800;}.cls-11{font-size:11.7px;}.cls-12{clip-path:url(#clip-path-2);}</style><clipPath id="clip-path" transform="translate(104)"><rect class="cls-1" x="10.93" y="12.78" width="104" height="92.52" transform="translate(139.94 97.95) rotate(163.63)"/></clipPath><clipPath id="clip-path-2" transform="translate(104)"><rect class="cls-1" y="29.57" width="104" height="92.52"/></clipPath></defs><g class="cls-2"><g id="Layer_2" data-name="Layer 2"><g id="Игра"><g id="Купюра_-_100" data-name="Купюра - 100"><g class="cls-3"><g id="_100" data-name="100"><rect class="cls-4" x="-90.97" y="27.43" width="208" height="92.52" transform="matrix(-0.96, 0.28, -0.28, -0.96, 150.31, 140.72)"/><rect class="cls-5" x="-52.36" y="27.43" width="130.8" height="92.52" transform="translate(150.31 140.72) rotate(163.63)"/><rect class="cls-6" x="-83.1" y="82.15" width="208" height="36.66" transform="matrix(-0.96, 0.28, -0.28, -0.96, 173.28, 191.01)"/><path class="cls-4" d="M-78.59,113.53H-8.53a0,0,0,0,1,0,0V138a0,0,0,0,1,0,0H-65.65a12.94,12.94,0,0,1-12.94-12.94V113.53A0,0,0,0,1-78.59,113.53Z" transform="matrix(-0.96, 0.28, -0.28, -0.96, 54.09, 258.71)"/><rect class="Light-35" x="-90.97" y="27.43" width="208" height="92.52" transform="matrix(-0.96, 0.28, -0.28, -0.96, 150.31, 140.72)"/><rect class="cls-5" x="-14.44" y="21.98" width="92.09" height="92.52" transform="translate(86.05 11.67) rotate(-16.37)"/><line class="cls-7" x1="108.96" y1="123.77" x2="83.45" y2="35.85"/><line class="cls-7" x1="117.74" y1="121.19" x2="92.23" y2="33.27"/><line class="cls-7" x1="126.51" y1="118.61" x2="101.01" y2="30.69"/><line class="cls-7" x1="135.29" y1="116.03" x2="109.79" y2="28.11"/><line class="cls-7" x1="144.07" y1="113.46" x2="118.57" y2="25.53"/><line class="cls-7" x1="152.85" y1="110.88" x2="127.35" y2="22.95"/><line class="cls-7" x1="161.63" y1="108.3" x2="136.13" y2="20.38"/><line class="cls-7" x1="170.41" y1="105.72" x2="144.91" y2="17.8"/><line class="cls-7" x1="179.19" y1="103.14" x2="153.68" y2="15.22"/><line class="cls-7" x1="187.97" y1="100.56" x2="162.46" y2="12.64"/><rect class="cls-8" x="-87.81" y="39.91" width="184.06" height="7.55" transform="translate(124.59 84.41) rotate(163.63)"/><rect class="cls-9" x="17.51" y="84.14" width="76.65" height="14.99" transform="translate(239.22 163.82) rotate(163.63)"/><rect class="cls-8" x="58.67" y="18.85" width="35.4" height="13.44" rx="6.72" transform="translate(260.86 28.58) rotate(163.63)"/><rect class="cls-8" x="-83.97" y="60.74" width="35.4" height="13.44" rx="6.72" transform="translate(-6.83 150.86) rotate(163.63)"/><text class="cls-10" transform="matrix(-0.96, 0.28, 0.28, 0.96, 84.63, 124.58)">100</text><text class="cls-11" transform="translate(172.53 32.22) rotate(-16.37)">100</text><text class="cls-11" transform="matrix(-0.96, 0.28, 0.28, 0.96, 47.42, 68.03)">100</text></g></g><g class="cls-12"><g id="_100-2" data-name="100"><rect class="cls-4" y="29.57" width="208" height="92.52"/><rect class="cls-5" x="38.6" y="29.57" width="130.8" height="92.52"/><rect class="cls-6" y="85.43" width="208" height="36.66"/><path class="cls-4" d="M150.89,97.61H208a0,0,0,0,1,0,0v24.48a0,0,0,0,1,0,0H137.95a0,0,0,0,1,0,0V110.55A12.94,12.94,0,0,1,150.89,97.61Z"/><rect class="Light-35" y="29.57" width="208" height="92.52"/><rect class="cls-5" x="-65.4" y="29.57" width="92.09" height="92.52" transform="translate(65.29 151.67) rotate(180)"/><line class="cls-7" x1="125.86" y1="121.61" x2="125.56" y2="30.06"/><line class="cls-7" x1="116.71" y1="121.61" x2="116.41" y2="30.06"/><line class="cls-7" x1="107.56" y1="121.61" x2="107.26" y2="30.06"/><line class="cls-7" x1="98.41" y1="121.61" x2="98.11" y2="30.06"/><line class="cls-7" x1="89.27" y1="121.61" x2="88.96" y2="30.06"/><line class="cls-7" x1="80.12" y1="121.61" x2="79.81" y2="30.06"/><line class="cls-7" x1="70.97" y1="121.61" x2="70.66" y2="30.06"/><line class="cls-7" x1="61.82" y1="121.61" x2="61.51" y2="30.06"/><line class="cls-7" x1="52.67" y1="121.61" x2="52.36" y2="30.06"/><line class="cls-7" x1="43.52" y1="121.61" x2="43.21" y2="30.06"/><rect class="cls-8" x="11.97" y="40.79" width="184.06" height="7.55"/><rect class="cls-9" x="29.67" y="97.61" width="76.65" height="14.99"/><rect class="cls-8" x="11.97" y="40.79" width="35.4" height="13.44" rx="6.72"/><rect class="cls-8" x="160.63" y="40.79" width="35.4" height="13.44" rx="6.72"/><text class="cls-10" transform="translate(149.44 115.53)">100</text><text class="cls-11" transform="translate(20.49 50.79)">100</text><text class="cls-11" transform="translate(169.2 50.79)">100</text></g></g></g></g></g></g></svg>