<svg xmlns="http://www.w3.org/2000/svg" xmlns:xlink="http://www.w3.org/1999/xlink" viewBox="0 0 260.12 131.86"><defs><style>.cls-1{fill:#ededed;}.cls-2{fill:none;}.Shadow,.cls-2{mix-blend-mode:soft-light;}.cls-3{isolation:isolate;}.Shadow{fill:#373737;}.cls-4{clip-path:url(#clip-path);}.cls-5{clip-path:url(#clip-path-2);}.cls-6,.cls-8{fill:#f26549;}.cls-7{fill:#ffd24c;}.cls-8{font-size:26.62px;font-family:FlowExt-Bold, Flow Ext;font-weight:700;}.cls-9{letter-spacing:0.02em;}.cls-10{letter-spacing:0em;}</style><clipPath id="clip-path"><path class="cls-1" d="M0,131.68V3.6H5.4S47.67,21,130.06,21,254.72,3.6,254.72,3.6h5.4V131.68Z"/></clipPath><clipPath id="clip-path-2"><path class="cls-2" d="M0,131.68V68.49c53.39-37.73,206.73-37.73,260.12,0v63.19Z"/></clipPath></defs><g class="cls-3"><g id="Layer_2" data-name="Layer 2"><g id="Игра"><rect class="cls-1" width="260.12" height="131.68"/><rect class="Shadow" width="260.12" height="131.68"/><rect class="Shadow" width="260.12" height="131.68"/><path class="cls-1" d="M0,131.68V3.6H5.4S47.67,21,130.06,21,254.72,3.6,254.72,3.6h5.4V131.68Z"/><g class="cls-4"><g class="cls-5"><polygon class="cls-6" points="260.12 85.94 62.24 131.86 260.12 131.86 260.12 85.94"/><polygon class="cls-7" points="0 85.94 197.88 131.86 0 131.86 0 85.94"/></g><path class="Shadow" d="M0,0V131.68H260.12V0ZM254.72,114.56A11.72,11.72,0,0,1,243,126.28H17.12A11.72,11.72,0,0,1,5.4,114.56V0H254.72Z"/><text class="cls-8" transform="translate(27.6 73.73)">На самое <tspan class="cls-9" x="116.92" y="0">в</tspan><tspan class="cls-10" x="130.47" y="0">ажное</tspan></text></g></g></g></g></svg>